# File created by Blade
# Date/Time:  Wed Jan 21 17:57:11 2015
# Frame Rate: 120.000 fps
#------------------------------------------------------
:FULLY-SPECIFIED
:DEGREES
1702
root 18.638705 30.490998 -16.194625 -86.493287 1.694903 -178.686270
Spine 66.272500 0.817240 1.951849
Head 207.913967 -0.702032 177.721736
LeftShoulder 17.938467 -63.165511 22.383466
LeftArm 8.834986 9.119548 -3.557568
LeftForeArm 57.954564 0.000000 85.250500
LeftHand 0.561140 -0.000000 35.260494
LeftHandThumb1 -26.253704 0.000000 33.147579
RightShoulder 6.290048 24.768476 -32.446727
RightArm 20.921022 37.812870 10.402569
RightForeArm -73.183924 0.000000 84.287539
RightHand -9.643043 -0.000000 -30.771265
RightHandThumb1 -24.326973 -0.000000 -32.862282
LeftUpLeg -95.480229 30.938160 -3.332586
LeftLeg -2.473109 -0.000000 0.000000
LeftFoot -15.580856 12.265453 -22.460875
LeftToeBase 32.803753 -0.000000 -0.000000
RightUpLeg -98.184704 -27.166815 6.503432
RightLeg -6.690069 -0.000000 0.000000
RightFoot -6.247194 -16.698026 27.807072
RightToeBase 28.741440 -0.000000 -0.000000
1703
root 18.641158 30.483727 -16.144751 -86.998275 1.596073 -178.736748
Spine 65.872338 0.744184 2.078167
Head 207.910173 -0.604985 177.680217
LeftShoulder 18.507363 -62.705349 21.702323
LeftArm 9.617261 9.828621 -3.698897
LeftForeArm 56.955043 -0.000000 84.294258
LeftHand 0.928524 -0.000000 35.231911
LeftHandThumb1 -26.253704 0.000000 33.147579
RightShoulder 6.335573 23.819001 -32.174008
RightArm 22.062190 37.457744 10.716151
RightForeArm -72.168506 0.000000 83.554639
RightHand -9.049561 -0.000000 -30.776627
RightHandThumb1 -24.326973 -0.000000 -32.862282
LeftUpLeg -94.873123 30.940469 -2.791133
LeftLeg -2.557431 -0.000000 0.000000
LeftFoot -15.486525 12.403754 -22.512765
LeftToeBase 32.748943 -0.000000 -0.000000
RightUpLeg -98.306717 -27.142071 7.094608
RightLeg -6.182175 -0.000000 0.000000
RightFoot -6.070224 -16.068839 27.199017
RightToeBase 28.851406 -0.000000 -0.000000
1704
root 18.634044 30.478540 -16.085516 -87.457198 1.589047 -178.856543
Spine 65.333405 0.683586 2.184922
Head 207.830510 -0.532380 177.762113
LeftShoulder 18.831640 -61.884028 21.115165
LeftArm 10.847253 10.230068 -3.752193
LeftForeArm 55.831072 -0.000000 83.219792
LeftHand 1.240472 -0.000000 35.047999
LeftHandThumb1 -26.253704 0.000000 33.147579
RightShoulder 6.569707 23.620047 -31.929770
RightArm 22.379837 36.461851 10.925461
RightForeArm -71.080077 0.000000 83.455131
RightHand -8.379938 -0.000000 -30.163798
RightHandThumb1 -24.326973 -0.000000 -32.862282
LeftUpLeg -94.429801 30.829597 -2.509445
LeftLeg -2.590239 -0.000000 0.000000
LeftFoot -15.362428 12.491574 -22.508990
LeftToeBase 32.342937 -0.000000 -0.000000
RightUpLeg -98.529195 -27.204211 7.600420
RightLeg -5.638023 -0.000000 0.000000
RightFoot -5.959863 -15.436465 26.827525
RightToeBase 29.014064 -0.000000 -0.000000
1705
root 18.621472 30.479067 -16.030058 -87.914649 1.627399 -178.919289
Spine 64.829509 0.741829 2.277142
Head 207.933287 -0.307419 178.101797
LeftShoulder 18.991067 -61.089081 20.778641
LeftArm 12.034026 10.498760 -3.963206
LeftForeArm 54.507488 -0.000000 82.325512
LeftHand 1.654076 -0.000000 34.408353
LeftHandThumb1 -26.253704 0.000000 33.147579
RightShoulder 6.645655 23.298423 -31.617636
RightArm 22.702914 35.547404 11.077053
RightForeArm -70.202258 -0.000000 83.508273
RightHand -7.866492 -0.000000 -29.565424
RightHandThumb1 -24.326973 -0.000000 -32.862282
LeftUpLeg -93.761571 30.770085 -2.054385
LeftLeg -2.806228 -0.000000 0.000000
LeftFoot -15.226803 12.764898 -22.560608
LeftToeBase 32.625084 -0.000000 -0.000000
RightUpLeg -98.136034 -27.327460 7.369317
RightLeg -5.665921 -0.000000 0.000000
RightFoot -5.803145 -15.491107 26.859946
RightToeBase 28.612129 -0.000000 -0.000000
1706
root 18.608546 30.477025 -15.972948 -88.381766 1.671250 -178.975427
Spine 64.186397 0.663256 2.068603
Head 207.741953 -0.604862 178.207304
LeftShoulder 19.043370 -60.164592 20.647265
LeftArm 12.883860 10.974863 -4.125062
LeftForeArm 53.050639 0.000000 81.624256
LeftHand 1.771407 -0.000000 33.723927
LeftHandThumb1 -26.253704 0.000000 33.147579
RightShoulder 7.284727 22.795715 -31.090627
RightArm 22.763201 34.839070 11.036663
RightForeArm -69.646575 -0.000000 83.849323
RightHand -7.769816 -0.000000 -28.619320
RightHandThumb1 -24.326973 -0.000000 -32.862282
LeftUpLeg -93.197025 30.710260 -1.771271
LeftLeg -2.973820 -0.000000 0.000000
LeftFoot -15.094968 12.849055 -22.548825
LeftToeBase 32.860575 -0.000000 -0.000000
RightUpLeg -97.878490 -27.417421 7.311354
RightLeg -5.577223 -0.000000 0.000000
RightFoot -5.615841 -15.386377 26.841785
RightToeBase 28.627511 -0.000000 -0.000000
1707
root 18.601725 30.471285 -15.912676 -88.818715 1.714107 -178.968302
Spine 63.604687 0.690105 1.984228
Head 207.963446 -0.733768 178.221255
LeftShoulder 19.036934 -59.540776 20.488141
LeftArm 13.656196 11.574703 -4.371662
LeftForeArm 51.143606 -0.000000 81.160583
LeftHand 2.073460 -0.000000 33.244015
LeftHandThumb1 -26.253704 0.000000 33.147579
RightShoulder 7.364241 21.713975 -30.626030
RightArm 23.468437 34.555044 11.141316
RightForeArm -69.087876 -0.000000 84.094242
RightHand -7.583256 -0.000000 -28.011675
RightHandThumb1 -24.326973 -0.000000 -32.862282
LeftUpLeg -92.735191 30.724126 -1.606006
LeftLeg -3.147566 -0.000000 0.000000
LeftFoot -14.912139 12.982020 -22.494037
LeftToeBase 32.798165 -0.000000 -0.000000
RightUpLeg -96.801920 -27.586655 6.245822
RightLeg -6.220452 -0.000000 0.000000
RightFoot -5.485010 -16.328041 27.046329
RightToeBase 28.682434 -0.000000 -0.000000
